<?xml version="1.0" standalone="no"?>
<!DOCTYPE svg PUBLIC "-//W3C//DTD SVG 1.1//EN" "http://www.w3.org/Graphics/SVG/1.1/DTD/svg11.dtd" >
<svg xmlns="http://www.w3.org/2000/svg">
<metadata></metadata>
<defs>
<font id="PTSansBoldItalic" horiz-adv-x="1116" >
<font-face units-per-em="2048" ascent="1536" descent="-512" />
<missing-glyph horiz-adv-x="518" />
<glyph unicode="&#xfb01;" horiz-adv-x="1077" d="M-264 -369l69 187q57 -23 158 -23q66 0 101.5 51.5t52.5 153.5l123 813h-136l43 211h134l12 57q41 195 155.5 284t271.5 89q289 0 413 -82l-103 -190q-98 63 -274 63q-150 0 -198 -131q-15 -41 -26 -90h519l-154 -1024h-252l123 813h-276l-123 -813q-34 -221 -110 -318 q-85 -108 -257 -108q-180 0 -266 57z" />
<glyph unicode="&#xfb02;" horiz-adv-x="1144" d="M-264 -369l69 187q57 -23 158 -23q66 0 101.5 51.5t52.5 153.5l125 813h-136l44 211h133l12 57q41 193 149.5 286t323.5 93q124 0 245.5 -15t147.5 -22l-184 -1091q-10 -58 -10 -74q0 -72 55 -72q45 0 104 21l-8 -182q-112 -50 -221.5 -50t-157 35t-47.5 117q0 39 8 78 l172 1028q-61 16 -150 16t-128 -62.5t-59 -162.5h147l-41 -211h-147l-125 -813q-39 -223 -111 -318q-83 -108 -256 -108q-180 0 -266 57z" />
<glyph horiz-adv-x="0" />
<glyph horiz-adv-x="2048" />
<glyph unicode="&#xd;" horiz-adv-x="518" />
<glyph unicode=" "  horiz-adv-x="518" />
<glyph unicode="&#x09;" horiz-adv-x="518" />
<glyph unicode="&#xa0;" horiz-adv-x="518" />
<glyph unicode="!" horiz-adv-x="579" d="M152 135q0 72 45 114t119.5 42t119.5 -42t45 -114t-45 -115t-120 -43t-119.5 43t-44.5 115zM283 426l18 334l143 674h263l-144 -674l-121 -334h-159z" />
<glyph unicode="&#x22;" horiz-adv-x="724" d="M143 991l95 443h221l-162 -443h-154zM430 991l95 443h221l-162 -443h-154z" />
<glyph unicode="#" d="M98 420l45 198h154l51 218h-147l45 198h149l72 295h219l-72 -295h183l71 295h219l-71 -295h147l-51 -198h-143l-51 -218h141l-49 -198h-140l-73 -316h-219l73 316h-182l-74 -316h-219l74 316h-152zM516 618h182l52 218h-183z" />
<glyph unicode="$" d="M121 88l96 199q94 -65 223 -88l97 452q-119 79 -164 137q-88 114 -88 252q0 187 125 298q110 96 297 118l41 182h202l-39 -184q139 -18 240 -72l-102 -208q-72 40 -187 59l-88 -416q47 -33 94 -69.5t84 -85.5q82 -107 82 -225.5t-32.5 -195.5t-91.5 -133 q-114 -108 -316 -131l-37 -182h-203l39 185q-169 22 -272 108zM551 1078.5q0 -64.5 33.5 -106.5t87.5 -83l73 352q-98 -4 -146 -51t-48 -111.5zM557 193q109 8 160 63t51 125t-37 115t-92 86z" />
<glyph unicode="%" horiz-adv-x="1646" d="M113 1018q0 115 38 196.5t99 135.5q122 108 271 108q290 0 290 -246q0 -222 -129 -342q-116 -108 -295 -108q-127 0 -200.5 70.5t-73.5 185.5zM164 113l1179 1349l150 -135l-1180 -1356zM336 1037.5q0 -103.5 88 -103.5q68 0 115 70.5t47 176t-88 105.5q-64 0 -114 -74 q-48 -71 -48 -174.5zM860 258q0 115 38 196.5t99 135.5q122 108 271 108q290 0 290 -246q0 -222 -129 -342q-116 -108 -295 -108q-127 0 -200.5 70.5t-73.5 185.5zM1083 277.5q0 -103.5 88 -103.5q68 0 115 70.5t47 176t-88 105.5q-64 0 -114 -74q-48 -71 -48 -174.5z" />
<glyph unicode="&#x26;" horiz-adv-x="1603" d="M150 332q0 258 279 458q79 56 163 97q-53 103 -53 233q0 231 219 314q76 28 169 28t145 -20.5t83 -53.5q53 -58 53 -159q0 -204 -319 -379q93 -230 207 -385q95 92 204 285l162 -103q-29 -54 -89 -135q-85 -114 -154 -188q120 -145 223 -189l-178 -196q-86 33 -188 145 q-29 31 -50 59q-88 -68 -203.5 -120t-239.5 -52t-199 28t-127 76q-107 99 -107 257zM416 386q0 -91 55 -140t148.5 -49t168 33.5t119.5 74.5q-149 214 -233 420q-121 -82 -189.5 -165t-68.5 -174zM786 1137q0 -80 37 -162q86 51 133.5 100t47.5 96.5t-18.5 70t-76 22.5 t-90.5 -39t-33 -88z" />
<glyph unicode="'" horiz-adv-x="446" d="M186 991l95 443h221l-162 -443h-154z" />
<glyph unicode="(" horiz-adv-x="634" d="M127 178q0 371 173 732q154 322 402 548l132 -110q-312 -345 -421 -831q-36 -161 -36 -307t18.5 -272t83.5 -274l-157 -110q-195 258 -195 624z" />
<glyph unicode=")" horiz-adv-x="634" d="M-158 -338q197 219 322 522q137 331 137 647.5t-104 509.5l178 115q176 -235 176 -618q0 -377 -171 -736q-158 -330 -400 -553z" />
<glyph unicode="*" horiz-adv-x="729" d="M160 1112v152h121l120 -35l-102 90l-57 102l131 76l57 -94l31 -121l31 113l57 100l129 -72l-62 -106l-96 -88l131 33h117v-150h-111l-125 33l103 -96l51 -86l-131 -76l-55 94l-41 131l-27 -119l-59 -100l-133 76l61 100l92 76l-112 -33h-121z" />
<glyph unicode="+" horiz-adv-x="1034" d="M119 578v229h332v346h239v-346h334v-229h-334v-351h-239v351h-332z" />
<glyph unicode="," horiz-adv-x="442" d="M-53 -193q59 23 108.5 74.5t67.5 108.5q-35 2 -65.5 34.5t-30.5 100.5t52 113t124 45t107.5 -47.5t33.5 -128t-41 -155.5t-93 -127q-97 -93 -210 -128z" />
<glyph unicode="-" horiz-adv-x="702" d="M115 483l51 213h489l-51 -213h-489z" />
<glyph unicode="." horiz-adv-x="514" d="M68 135q0 72 45 114t119.5 42t119.5 -42t45 -114t-45 -115t-120 -43t-119.5 43t-44.5 115z" />
<glyph unicode="/" horiz-adv-x="794" d="M-158 -193l1043 1651l176 -94l-1045 -1655z" />
<glyph unicode="0" d="M113 469q0 426 182 709q86 133 203.5 208.5t257.5 75.5q274 0 358 -260q31 -96 31 -261.5t-44 -345t-127 -318t-203 -222.5t-269 -84q-193 0 -295 145q-94 132 -94 353zM367 504q0 -117 14 -170t37 -84q41 -53 120 -53t141 67.5t109 175.5q103 235 103 521 q0 139 -26.5 188t-59.5 68.5t-92.5 19.5t-123 -63.5t-113.5 -169t-79.5 -244.5t-29.5 -256z" />
<glyph unicode="1" d="M119 0l47 225h270l174 809l58 140l-119 -121l-199 -127l-80 157l527 375h143l-262 -1233h264l-47 -225h-776z" />
<glyph unicode="2" d="M74 0l28 137q317 295 430 419t176 210q144 194 144 311q0 68 -35 111t-141 43t-254 -107l-62 193q98 72 197.5 108.5t241 36.5t224.5 -87t83 -215t-53.5 -245.5t-134.5 -230.5q-126 -174 -367 -393l-121 -84v-10l143 28h367l-47 -225h-819z" />
<glyph unicode="3" d="M84 35l117 227q90 -59 237 -59q150 0 236 82q76 72 76 176t-52.5 149t-189.5 45h-143l30 142l301 338l131 92l-155 -19h-326l49 226h744l-31 -146l-350 -389l-99 -55v-10l82 12q98 -10 172 -85q91 -93 91 -255q0 -242 -152 -384q-162 -151 -449 -151q-88 0 -178 16.5 t-141 47.5z" />
<glyph unicode="4" d="M57 399l31 152l805 893h209l-176 -834h215l-45 -211h-215l-84 -399h-236l84 399h-588zM336 596l127 14h227l68 316l53 172h-6l-98 -148l-258 -276z" />
<glyph unicode="5" d="M74 33l114 217q96 -47 203 -47t168.5 24.5t100.5 65.5q79 81 79 195t-62.5 157t-207.5 43l-158 -6l158 752h670l-52 -250h-450l-59 -283l75 8q159 0 250 -100q88 -96 88 -254q0 -283 -159.5 -433.5t-458.5 -150.5q-124 0 -241 38q-34 11 -58 24z" />
<glyph unicode="6" d="M127 419q0 222 78 403.5t206 317.5t291.5 220t337.5 102l15 -211q-211 -33 -384 -165q-182 -138 -251 -322q55 59 136 90t167 31q158 0 246 -99.5t88 -263.5q0 -237 -133 -386q-146 -165 -400 -165q-157 0 -265 101q-132 125 -132 347zM367 449q0 -111 46 -181.5 t152.5 -70.5t174 77.5t67.5 200.5q0 184 -182 184q-78 0 -145.5 -34.5t-102.5 -87.5q-10 -50 -10 -88z" />
<glyph unicode="7" d="M127 0l674 1104l104 100l-119 -20h-481l51 250h881l-16 -78l-830 -1356h-264z" />
<glyph unicode="8" d="M111 313q0 147 98 265q90 110 229 161q-71 66 -95 109q-46 82 -46 189t38 186.5t103 131.5q135 107 320.5 107t275.5 -89t90 -228q0 -189 -179 -327q-52 -40 -109 -70q172 -135 172 -328q0 -204 -144 -328q-139 -121 -368 -121q-168 0 -274 88q-111 92 -111 254zM350 362 q0 -72 43 -118.5t142 -46.5q96 0 161 47q70 51 70 145q0 119 -117 206q-35 26 -71 48q-228 -116 -228 -281zM539 1057q0 -82 45 -132.5t114 -90.5q185 135 185 256q0 147 -142 147q-86 0 -144 -49t-58 -131z" />
<glyph unicode="9" d="M203 934q0 242 155 387q150 141 381 141q280 0 374 -251q32 -85 32 -225t-42 -278.5t-112.5 -251t-164 -200.5t-196.5 -150q-204 -122 -407 -135l-12 209q218 39 391 170q162 122 229 289q-118 -94 -296 -94q-133 0 -224 89q-108 106 -108 300zM453 978q0 -64 15 -103 t42 -64q49 -45 126 -45t144.5 24.5t106.5 65.5q16 61 16 150.5t-46 162t-150 72.5q-106 0 -175 -63q-79 -72 -79 -200z" />
<glyph unicode=":" horiz-adv-x="643" d="M184 160q0 72 45 113.5t120 41.5t120 -42t45 -113q0 -72 -45 -115t-120 -43t-120 43t-45 115zM338 877q0 72 45 113.5t120 41.5t120 -42t45 -113q0 -72 -45 -115t-120 -43t-120 43t-45 115z" />
<glyph unicode=";" horiz-adv-x="628" d="M106 -193q59 23 109 74.5t68 108.5q-35 2 -66 34.5t-31 100.5t52.5 113t123.5 45q72 0 108 -47.5t34 -128t-41 -155.5t-93 -127q-99 -94 -210 -128zM324 877q0 72 45 113.5t119.5 41.5t119.5 -42t45 -113q0 -72 -45 -115t-120 -43t-119.5 43t-44.5 115z" />
<glyph unicode="&#x3c;" horiz-adv-x="1034" d="M104 584v143l791 473l117 -184l-459 -285l-186 -72l184 -63l471 -281l-117 -184z" />
<glyph unicode="=" horiz-adv-x="1034" d="M119 383v229h905v-229h-905zM119 775v229h905v-229h-905z" />
<glyph unicode="&#x3e;" horiz-adv-x="1034" d="M123 1018l115 182l802 -452v-144l-792 -473l-115 186l457 283l186 74l-184 61z" />
<glyph unicode="?" horiz-adv-x="880" d="M168 135q0 72 45 114t120 42t120 -42t45 -114t-45 -115t-120 -43t-120 43t-45 115zM233 1339q84 51 182.5 87t255 36t236.5 -72.5t80 -188.5t-32.5 -190.5t-84 -131t-113 -100.5t-117.5 -93t-101 -110.5t-62 -149.5h-217q28 258 245 429q132 104 171 158t39 110t-32 87 t-105 31q-144 0 -281 -94z" />
<glyph unicode="@" horiz-adv-x="2168" d="M205 483q0 223 80 403.5t215 307.5t313 195.5t371.5 68.5t355.5 -54t280.5 -155.5t186.5 -248t68 -305t-47.5 -273.5t-127 -199t-187 -133t-230.5 -49q-175 0 -215 119q-15 43 -8 106h-9q-79 -110 -133 -149q-104 -76 -217 -76q-103 0 -172 82q-72 85 -72 214.5t41 249.5 t111 212t163 148.5t203.5 56.5t206.5 -78l64 65h143l-100 -555q-8 -50 -8 -84q0 -98 75 -98q119 0 199 100q90 114 90 291t-51 286t-140 180q-170 136 -468 136q-160 0 -298 -57t-239.5 -158.5t-159 -240t-57.5 -299t48 -287.5t142 -217q194 -187 541 -187q145 0 273 60 l63 -197q-155 -74 -363.5 -74t-377 57.5t-291.5 170.5q-262 239 -262 665zM905 399.5q0 -147.5 125 -147.5q86 0 184 131q27 37 50 78l53 282q-63 50 -125.5 50t-115 -36t-90.5 -91q-81 -119 -81 -266.5z" />
<glyph unicode="A" horiz-adv-x="1191" d="M-78 0l797 1444h196l187 -1444h-268l-41 317h-418l-170 -317h-283zM492 543h290l-32 319l2 225h-11l-82 -227z" />
<glyph unicode="B" horiz-adv-x="1163" d="M41 10l299 1413q202 31 358 31t237 -19.5t139 -60.5q126 -88 126 -260q0 -139 -87 -242q-89 -104 -232 -124v-11q85 -18 147 -85q68 -75 68 -194.5t-51.5 -212.5t-137.5 -151q-167 -114 -442 -114h-85q-216 0 -339 30zM342 223q24 -12 124.5 -12t155 12.5t98.5 40.5 q101 66 101 185q0 169 -266 169h-131zM471 831h88q202 0 288 68q79 63 79 160.5t-58.5 130.5t-129.5 33q-144 0 -187 -9z" />
<glyph unicode="C" horiz-adv-x="1099" d="M119 549q0 250 67.5 421t178 280.5t253 160.5t275.5 51q224 0 346 -57l-104 -238q-80 45 -214 45t-224.5 -43t-156.5 -123q-141 -171 -141 -454q0 -174 87 -272.5t231 -98.5t268 68l4 -230q-137 -88 -336 -88q-261 0 -403 170q-131 158 -131 408z" />
<glyph unicode="D" horiz-adv-x="1269" d="M41 -2l303 1436q129 18 266 18l127 2q399 0 515 -296q40 -103 40 -219t-15 -219.5t-52 -207.5t-101.5 -200.5t-161.5 -169.5q-219 -165 -550 -165l-105 3q-41 2 -91 5l-100 6t-75 7zM356 233q24 -6 72 -6h59q143 0 243.5 64.5t163.5 162.5q118 184 118 423 q0 164 -69 245.5t-228 81.5q-106 0 -156 -8z" />
<glyph unicode="E" horiz-adv-x="1030" d="M41 0l303 1434h807l-53 -250h-541l-72 -334h494l-55 -250h-490l-76 -350h551l-51 -250h-817z" />
<glyph unicode="F" horiz-adv-x="1001" d="M41 0l303 1434h807l-53 -250h-541l-76 -355h498l-51 -249h-498l-123 -580h-266z" />
<glyph unicode="G" horiz-adv-x="1198" d="M119 534.5q0 254.5 64.5 426.5t174.5 283q216 218 570 218q207 0 346 -59l-107 -236q-97 45 -235 45t-230 -41t-160 -121q-143 -169 -143 -466q0 -170 80 -266.5t215 -96.5q100 0 176 51l58 273l-209 33l37 170h430l-135 -639q-176 -138 -412 -138q-230 0 -373 152 q-147 157 -147 411.5z" />
<glyph unicode="H" horiz-adv-x="1277" d="M41 0l303 1434h266l-123 -584h498l123 584h266l-303 -1434h-266l127 600h-498l-127 -600h-266z" />
<glyph unicode="I" horiz-adv-x="569" d="M72 0l303 1434h264l-303 -1434h-264z" />
<glyph unicode="J" horiz-adv-x="663" d="M-104 23l102 229q47 -27 100.5 -27t82 17.5t47.5 48.5q24 38 57 166l204 977h267l-224 -1049q-41 -195 -122 -291q-103 -119 -289 -119q-139 0 -225 48z" />
<glyph unicode="K" horiz-adv-x="1214" d="M41 0l303 1434h266l-135 -635l64 22l485 613h319l-516 -609l-122 -71l90 -80l311 -674h-297l-277 612h-96l-129 -612h-266z" />
<glyph unicode="L" horiz-adv-x="1013" d="M41 0l303 1434h266l-252 -1184h596l-51 -250h-862z" />
<glyph unicode="M" horiz-adv-x="1570" d="M41 0l303 1434h236l215 -656l26 -164h10l95 168l483 652h256l-303 -1434h-264l157 743l91 283h-13l-135 -231l-403 -531h-84l-193 537l-37 225h-10l-20 -281l-158 -745h-252z" />
<glyph unicode="N" horiz-adv-x="1292" d="M41 0l307 1444h184l353 -766l63 -223h13l14 223l162 756h252l-308 -1444h-184l-350 760l-68 229h-10l-18 -229l-158 -750h-252z" />
<glyph unicode="O" horiz-adv-x="1318" d="M119 537q0 190 52 359t148.5 295t232.5 198.5t304 72.5q347 0 448 -306q35 -105 35 -273.5t-52 -338t-147.5 -297.5t-227.5 -202t-291 -74q-242 0 -371 142.5t-131 423.5zM399 545q0 -324 242 -324q94 0 171 56.5t132 151.5q115 199 115 474q0 162 -63.5 235.5t-165 73.5 t-178.5 -53t-133 -144q-120 -195 -120 -470z" />
<glyph unicode="P" horiz-adv-x="1126" d="M41 0l301 1419q188 35 335.5 35t237 -23.5t155.5 -72.5q140 -103 140 -309q0 -295 -201 -441q-168 -123 -446 -123h-59q-49 0 -94 9l-103 -494h-266zM463 735q32 -8 67 -8h43q244 0 327 153q30 56 30 125.5t-19.5 108.5t-52.5 60q-58 38 -170 38q-70 0 -127 -10z" />
<glyph unicode="Q" horiz-adv-x="1318" d="M119 537q0 190 52 359t148.5 295t232.5 198.5t304 72.5q347 0 448 -306q35 -105 35 -273.5t-52 -338t-147.5 -297.5t-227.5 -202t-291 -74q-242 0 -371 142.5t-131 423.5zM328 -317l51 241q60 13 120 13q77 0 153 -21q77 -20 156 -44t163 -44.5t153 -20.5q117 0 211 23 l-51 -244q-97 -27 -196 -27q-92 0 -186 23q-91 21 -174 45.5t-158.5 46t-136 21.5t-105.5 -12zM399 545q0 -324 242 -324q94 0 171 56.5t132 151.5q115 199 115 474q0 162 -63.5 235.5t-165 73.5t-178.5 -53t-133 -144q-120 -195 -120 -470z" />
<glyph unicode="R" horiz-adv-x="1196" d="M41 0l301 1419q191 35 332 35t225 -22.5t145 -68.5q134 -100 134 -290q0 -209 -124 -335q-106 -108 -270 -130l80 -63l199 -545h-295l-197 561l-141 27l-123 -588h-266zM471 778h109q216 0 290 131q27 49 27 122t-47 123t-152 50q-75 0 -137 -10z" />
<glyph unicode="S" horiz-adv-x="1044" d="M-4 57l137 238q88 -53 219 -74q49 -8 102.5 -8t104.5 9t89 30q81 46 81 137q0 55 -37 94t-93 74t-120.5 73t-120.5 89q-131 118 -131 301q0 225 156 340q139 102 375 102q178 0 330 -50q45 -15 75 -34l-135 -233q-39 25 -114.5 50.5t-145.5 25.5t-115 -9.5t-79 -29.5 q-76 -45 -76 -131q0 -59 36.5 -100.5t93 -77t121 -72.5t121.5 -86q129 -112 129 -287q0 -348 -345 -431q-107 -26 -208.5 -26t-166 8.5t-119.5 20.5q-105 23 -164 57z" />
<glyph unicode="T" horiz-adv-x="1120" d="M197 1184l53 250h1059l-52 -250h-397l-252 -1184h-264l250 1184h-397z" />
<glyph unicode="U" horiz-adv-x="1232" d="M129 356q0 84 21 174l192 904h264l-188 -902q-16 -78 -17 -126q0 -98 51.5 -139.5t162 -41.5t178 72t102.5 231l192 906h250l-194 -926q-61 -288 -199 -414q-132 -119 -381 -119q-224 0 -335 107q-99 97 -99 274z" />
<glyph unicode="V" horiz-adv-x="1185" d="M207 1434h291l92 -840l-15 -244h9l90 244l442 840h299l-809 -1444h-192z" />
<glyph unicode="W" horiz-adv-x="1691" d="M223 1434h281l6 -799l-29 -254h11l79 258l406 795h180l60 -799l-27 -254h10l82 258l336 795h287l-682 -1444h-187l-75 796l16 220h-12l-78 -222l-408 -794h-186z" />
<glyph unicode="X" horiz-adv-x="1245" d="M-49 0l573 731l-231 703h289l123 -414l20 -146l76 146l305 414h319l-538 -693l256 -741h-285l-147 442l-25 152l-82 -152l-330 -442h-323z" />
<glyph unicode="Y" horiz-adv-x="1165" d="M217 1434h295l133 -539l-4 -152h8l64 156l358 535h305l-637 -899l-112 -535h-265l111 532z" />
<glyph unicode="Z" horiz-adv-x="1060" d="M-23 0l54 250l737 852l119 82h-658l52 250h944l-51 -250l-742 -858l-115 -76h658l-53 -250h-945z" />
<glyph unicode="[" horiz-adv-x="643" d="M4 -471l402 1905h456l-45 -224h-215l-309 -1456h215l-49 -225h-455z" />
<glyph unicode="\" horiz-adv-x="868" d="M74 1368l211 88l682 -1651l-207 -92z" />
<glyph unicode="]" horiz-adv-x="641" d="M-160 -471l49 225h215l308 1456h-215l45 224h458l-403 -1905h-457z" />
<glyph unicode="^" horiz-adv-x="1034" d="M143 846l402 598h143l379 -598h-268l-146 250l-45 143l-51 -145l-158 -248h-256z" />
<glyph unicode="_" horiz-adv-x="909" d="M-94 -240h909v-219h-909v219z" />
<glyph unicode="`" horiz-adv-x="487" d="M553 1413l14 62h264l50 -316h-142z" />
<glyph unicode="a" horiz-adv-x="1030" d="M68 296q0 149 37.5 286t117.5 242q176 229 492 229q143 0 321 -49l-127 -594q-30 -146 -30 -257t4 -155h-187l-28 176h-9q-47 -75 -137 -138q-93 -65 -190 -65q-135 0 -199.5 88t-64.5 237zM328 344q0 -162 100 -162q113 0 217 162l103 477q-48 21 -116.5 21t-125.5 -44 t-97 -115q-81 -144 -81 -339z" />
<glyph unicode="b" horiz-adv-x="1048" d="M45 57l291 1377h252l-127 -590h8q150 205 338 205q111 0 166 -78t55 -207q0 -369 -196 -589q-89 -99 -199.5 -149.5t-229 -50.5t-214 24t-144.5 58zM328 215q42 -29 110 -29t123 34t101 100q106 148 106 376q0 141 -82 142q-73 0 -158 -79q-74 -70 -114 -147z" />
<glyph unicode="c" horiz-adv-x="843" d="M70 335q0 161 49 296t130 228t184.5 143.5t205.5 50.5t158.5 -18.5t101.5 -41.5l-94 -200q-64 38 -172 38q-109 0 -202 -129q-91 -127 -91 -296q0 -213 179 -213q89 0 192 63l47 -172q-66 -49 -153 -81t-179 -32t-160.5 29t-111.5 78q-84 96 -84 257z" />
<glyph unicode="d" horiz-adv-x="1038" d="M76 302q0 150 39 283.5t109.5 237t172 165t215 61.5t181.5 -31l88 416h252l-228 -1074q-35 -167 -35 -299v-31q0 -16 2 -32h-172l-28 176h-8q-46 -74 -138 -138q-93 -65 -186 -65q-127 0 -195.5 90.5t-68.5 240.5zM336 328q0 -59 26.5 -102.5t66.5 -43.5t71.5 15.5 t59.5 40.5q58 50 89 106l99 463q-48 31 -125.5 31t-128 -42t-84.5 -113q-74 -151 -74 -355z" />
<glyph unicode="e" horiz-adv-x="954" d="M70 335q0 169 51 301t134 224t187.5 142.5t198.5 50.5t154.5 -21.5t99.5 -59.5q76 -74 76 -175t-43 -164.5t-120 -105.5q-156 -85 -423 -85l-61 2q-9 -56 -9 -79q0 -183 185 -183q90 0 161.5 27t108.5 53l53 -164q-63 -53 -163.5 -90t-250 -37t-244.5 97.5t-95 266.5z M360 604q159 0 228 19.5t106 49t37 71t-22.5 73t-103.5 31.5t-147.5 -70t-97.5 -174z" />
<glyph unicode="f" horiz-adv-x="602" d="M-264 -369l69 187q57 -23 158 -23q66 0 101.5 52.5t54.5 168.5l129 797h-144l46 211h131l26 137q29 158 97 227q75 74 227 74q185 0 307 -55l-59 -186q-78 30 -193 30q-66 0 -95.5 -38.5t-41.5 -120.5l-12 -68h204l-41 -211h-196l-152 -883q-26 -167 -97 -252 q-85 -104 -253 -104q-180 0 -266 57z" />
<glyph unicode="g" horiz-adv-x="1034" d="M-20 -342l94 186q18 -8 42.5 -19t56.5 -23q71 -25 172 -25q191 0 249 237l39 160h-8q-47 -74 -128 -132t-188 -58t-175 83t-68 231.5t45 286.5t125.5 241.5t191.5 163t240 59.5q224 0 372 -70l-206 -979q-77 -343 -323 -412q-81 -22 -166 -22t-141.5 10t-99.5 24 q-76 26 -124 58zM326 338q0 -66 27.5 -104.5t67.5 -38.5t77 21.5t70 53.5q61 59 104 148l88 399q-40 21 -116.5 21t-132.5 -39t-97 -107q-88 -144 -88 -354z" />
<glyph unicode="h" horiz-adv-x="1081" d="M37 0l303 1434h252l-129 -590h8q171 209 367 209q98 0 152 -49.5t54 -174.5q0 -76 -24 -192l-135 -637h-252l123 582q20 90 20 149q0 100 -84 100q-73 0 -164 -85q-82 -77 -118 -156l-121 -590h-252z" />
<glyph unicode="i" horiz-adv-x="524" d="M55 0l217 1024h252l-217 -1024h-252zM311 1316q0 67 44 103.5t111 36.5t112.5 -37t45.5 -103.5t-46 -104t-112.5 -37.5t-110.5 37.5t-44 104.5z" />
<glyph unicode="j" horiz-adv-x="499" d="M-229 -408l49 218q11 -1 21 -1q123 0 173 124q17 44 29 100l209 991h254l-227 -1067q-80 -379 -381 -379q-63 0 -127 14zM289 1316q0 67 44 103.5t111 36.5t112.5 -37t45.5 -103.5t-46 -104t-112.5 -37.5t-110.5 37.5t-44 104.5z" />
<glyph unicode="k" horiz-adv-x="952" d="M37 0l303 1434h252l-180 -846l75 26l289 410h281l-305 -412l-123 -77l92 -78l156 -457h-271l-147 424h-82l-88 -424h-252z" />
<glyph unicode="l" horiz-adv-x="557" d="M68 135q0 47 12 109l252 1190h252l-240 -1131q-6 -28 -6 -50q0 -23 7 -38q13 -29 57 -29t96 23l-6 -182q-37 -23 -107 -37.5t-147.5 -14.5t-123.5 34t-46 126z" />
<glyph unicode="m" horiz-adv-x="1570" d="M37 0l217 1024h197l-13 -180h8q93 99 143 134q110 75 226 75q82 1 124 -59q38 -54 38 -141v-17q115 145 255 198q52 19 126.5 19t125 -44t50.5 -148.5t-31 -246.5l-129 -614h-252l121 575q23 108 23 160q0 96 -76 96q-90 0 -188 -133q-25 -34 -39 -65l-132 -633h-251 l116 557q27 128 27 180q0 94 -72 94q-92 0 -189 -127q-26 -34 -42 -65l-131 -639h-252z" />
<glyph unicode="n" horiz-adv-x="1067" d="M37 0l217 1024h190l-10 -180h8q171 209 383 209q92 0 147.5 -50.5t55.5 -166.5q0 -76 -16 -142l-148 -694h-252l136 635q12 57 12 101t-18.5 69.5t-61.5 25.5t-80 -18t-70 -49q-69 -67 -110 -146l-131 -618h-252z" />
<glyph unicode="o" horiz-adv-x="1015" d="M70 332q0 315 168 522q77 94 178.5 146.5t206 52.5t172 -31t109.5 -82q79 -96 79 -254t-45 -290t-121 -226t-176 -146.5t-203.5 -52.5t-171 32t-111.5 83q-85 99 -85 246zM330 364.5q0 -181.5 133 -182.5q49 0 96 43t84 113q80 151 80 334q0 82 -27.5 126t-90 44 t-109.5 -41t-84 -107q-82 -148 -82 -329.5z" />
<glyph unicode="p" horiz-adv-x="1036" d="M-53 -410l303 1434h186l-10 -180h8q104 140 244 190q51 19 110 19q104 0 168 -72t64 -235.5t-46 -308t-123 -248t-180.5 -161t-219 -57.5t-166.5 37l-88 -418h-250zM328 217q51 -35 114 -35t121 43t102 115q95 155 95 367q0 59 -27.5 97t-70 38t-77 -18.5t-65.5 -45.5 q-52 -47 -98 -131z" />
<glyph unicode="q" horiz-adv-x="1026" d="M59 297q0 144 50.5 283t137.5 243.5t202.5 165t229 60.5t207 -21.5t144.5 -50.5l-301 -1387h-246l125 570h-8q-42 -73 -118 -128q-84 -61 -165.5 -61t-127.5 26t-75 70q-55 86 -55 230zM319 317q0 -63 24 -99t64 -36t78.5 23.5t72.5 59.5q66 70 106 157l81 395 q-51 21 -116 21t-121.5 -44t-97.5 -117q-91 -162 -91 -360z" />
<glyph unicode="r" horiz-adv-x="702" d="M37 0l217 1024h186l2 -180h9q45 82 109.5 139t162.5 57q43 0 102 -16l-63 -219q-47 14 -78 14q-84 0 -154.5 -54t-107.5 -126l-133 -639h-252z" />
<glyph unicode="s" horiz-adv-x="811" d="M-2 39l80 201q103 -58 241 -58q146 0 150 113q0 41 -24.5 70.5t-62.5 56.5t-81 54.5t-81 63.5q-87 81 -87 203q0 138 101 224q102 86 272 86q216 0 319 -62l-69 -192q-98 43 -230.5 43t-132.5 -94q0 -33 24.5 -58.5t62.5 -52.5t81 -54.5t81 -66.5q87 -89 87 -209 q0 -170 -110.5 -253t-294.5 -83q-104 0 -191.5 19.5t-134.5 48.5z" />
<glyph unicode="t" horiz-adv-x="655" d="M82 813l49 211h133l41 193l268 75l-57 -268h240l-47 -211h-238l-100 -463q-12 -55 -12 -91q0 -45 19 -61q21 -16 76.5 -16t123.5 35v-188q-111 -58 -271 -58q-217 0 -217 195q0 28 10 90l119 557h-137z" />
<glyph unicode="u" horiz-adv-x="1048" d="M80 197q0 76 20 165l142 662h252l-134 -633q-12 -61 -12 -102q0 -86 74 -86q64 0 139 63q65 53 107 127l131 631h252l-129 -614q-32 -130 -36 -252q-3 -85 -4 -128q0 -19 1 -30h-203l-10 184h-8q-158 -213 -367 -213q-96 0 -155.5 48.5t-59.5 177.5z" />
<glyph unicode="v" horiz-adv-x="917" d="M82 1024h278l68 -537l4 -157h6l62 162l280 532h285l-627 -1034h-155z" />
<glyph unicode="w" horiz-adv-x="1388" d="M94 1024h258l33 -514l-12 -182h10l70 184l270 512h188l66 -524l-2 -170h10l62 172l237 522h246l-522 -1034h-187l-71 573v129h-9l-53 -131l-307 -571h-193z" />
<glyph unicode="x" horiz-adv-x="1015" d="M-84 0l424 524l-184 500h284l78 -219l27 -143l90 143l178 219h293l-399 -492l204 -532h-278l-98 246l-31 151l-92 -151l-203 -246h-293z" />
<glyph unicode="y" horiz-adv-x="925" d="M-35 -389l68 201q22 -11 61 -11t90.5 47.5t102.5 151.5l-193 1024h289l59 -575l2 -160h13l55 162l279 573h268l-492 -920q-148 -280 -214 -363t-125.5 -122t-138.5 -39t-124 31z" />
<glyph unicode="z" horiz-adv-x="890" d="M-27 0l45 221l461 490l146 92h-484l49 221h762l-47 -221l-471 -498l-131 -84h479l-47 -221h-762z" />
<glyph unicode="{" horiz-adv-x="729" d="M133 379l45 205q154 0 191 174l90 428q23 111 86 180.5t174 69.5h233l-47 -226h-98q-53 0 -83 -28.5t-44 -94.5l-84 -399q-18 -90 -69.5 -136t-106.5 -56l-4 -21q51 -8 80.5 -61.5t11.5 -139.5l-84 -397q-14 -66 4 -94.5t74 -28.5h96l-49 -225h-234q-102 0 -141 64.5 t-12 183.5l88 420q23 104 -9 143t-108 39z" />
<glyph unicode="|" horiz-adv-x="475" d="M193 -266v1700h217v-1700h-217z" />
<glyph unicode="}" horiz-adv-x="735" d="M-154 -471l50 225h98q51 0 79.5 28t43.5 95l86 399q18 90 68.5 136.5t107.5 56.5l6 20q-53 8 -84 61.5t-12 139.5l84 397q14 63 -3.5 93t-72.5 30h-94l45 226h231q102 0 142.5 -64.5t15.5 -183.5l-90 -420q-23 -104 10 -143t109 -39l-43 -205q-156 0 -193 -174l-92 -428 q-23 -111 -89.5 -180.5t-176.5 -69.5h-226z" />
<glyph unicode="~" horiz-adv-x="1034" d="M92 774q169 137 316 137q78 0 167 -36.5t135 -54t93 -17.5q86 0 158 59l96 -211q-135 -100 -250 -100q-80 0 -202 59q-46 23 -93 41.5t-100 18.5q-112 0 -230 -101z" />
<glyph unicode="&#xa1;" horiz-adv-x="579" d="M-21 -410l144 674l121 334h159l-18 -334l-143 -674h-263zM205 889q0 72 45 115t120 43t119.5 -43t44.5 -115t-45 -114t-119.5 -42t-119.5 42t-45 114z" />
<glyph unicode="&#xa2;" d="M190 338q0 140 39 263.5t105 215.5q135 187 340 225l39 187h235l-41 -189q94 -18 148 -47l-92 -200q-45 24 -115 32l-133 -624q96 21 151 55l49 -172q-88 -72 -233 -98l-39 -191h-235l38 187q-130 27 -196 126q-60 90 -60 230zM438 402q0 -154 103 -195l129 608 q-153 -61 -212 -265q-20 -67 -20 -148z" />
<glyph unicode="&#xa3;" d="M61 0l50 223h4q125 4 217 102q94 101 94 240v21q0 10 -2 20h-240l47 211h144q-27 111 -27 214.5t44 187.5t118 138q144 105 362 105q92 0 175 -19.5t131 -51.5l-86 -199q-95 49 -238 49q-104 0 -175 -67q-75 -72 -75 -170t29 -187h287l-48 -211h-194l2 -26 q0 -102 -43 -186.5t-94 -129.5l-97 -61l-2 -13l138 31h446l-49 -221h-918z" />
<glyph unicode="&#xa4;" d="M80 307l158 160l73 35q-53 91 -53 200.5t57 212.5l-77 35l-158 160l156 164l159 -158l39 -76q82 62 215.5 62t214.5 -60l41 74l160 158l158 -164l-158 -160l-76 -32q53 -79 53 -212t-53 -206l76 -33l158 -160l-158 -164l-160 158l-37 76q-83 -62 -216 -62t-218 60 l-39 -74l-159 -158zM481 707q0 -76 47 -125.5t123 -49.5t122 49.5t46 125.5t-46 127t-122 51t-123 -51t-47 -127z" />
<glyph unicode="&#xa5;" d="M133 246l35 164h254l24 116h-251l34 164h174l-210 744h311l137 -539l-6 -152h10l62 156l354 535h291l-527 -744h179l-35 -164h-256l-25 -116h256l-35 -164h-256l-51 -246h-266l51 246h-254z" />
<glyph unicode="&#xa6;" horiz-adv-x="464" d="M123 -266v702h219v-702h-219zM123 731v703h219v-703h-219z" />
<glyph unicode="&#xa7;" horiz-adv-x="1034" d="M86 61l88 191q125 -70 250 -70q72 0 115 28t43 69t-32 63.5t-79 43t-103.5 44t-103.5 56.5q-110 76 -110 200q0 92 49 156.5t114 111.5l99 33q-88 64 -92 176q0 127 112 212q115 87 291 87q178 0 320 -76l-76 -194q-41 23 -109.5 41t-138.5 18t-109 -29.5t-39 -70.5 t32 -62.5t79 -39t102.5 -36t102.5 -49.5q110 -71 110 -200q0 -98 -50 -169t-111 -114l-105 -32q47 -33 69.5 -75t20.5 -108q-2 -141 -112.5 -218t-292.5 -77q-113 0 -199 28t-135 62zM414 719q0 -63 46 -98t148 -68q133 71 133 164q0 89 -112 132q-39 15 -90 34 q-125 -69 -125 -164z" />
<glyph unicode="&#xa8;" horiz-adv-x="501" d="M369 1334q0 67 37.5 105t97.5 38q59 0 97 -38t38 -105t-38 -103.5t-97 -36.5t-97 36.5t-38 103.5zM795 1335q0 66 37.5 104t97.5 38q59 0 97 -38t38 -104t-38 -103.5t-97 -37.5t-97 37.5t-38 103.5z" />
<glyph unicode="&#xa9;" horiz-adv-x="1712" d="M164 594q0 330 214 538q206 201 525 201q316 0 525 -201q214 -205 214 -538t-214 -538q-209 -201 -525 -201q-340 0 -541 201q-198 198 -198 538zM365 594q0 -256 152 -402q152 -147 386 -147q238 0 389 147q152 148 152 402t-152 402q-151 147 -389 147 q-234 0 -386 -147q-152 -146 -152 -402zM559 597q0 183 93 284.5t247 101.5q131 0 246 -65l-66 -179q-64 31 -125 31q-129 0 -129 -176t144 -176q74 0 131 31l59 -181q-98 -63 -262 -63t-251 104.5t-87 287.5z" />
<glyph unicode="&#xaa;" horiz-adv-x="821" d="M123 943q0 71 30.5 117t82.5 74q96 54 260 54q48 0 98 -4q16 51 -2.5 82.5t-110 31.5t-205.5 -45l-28 127q138 70 354 70q123 0 173 -51t50 -114.5t-14 -128t-31 -132.5q-45 -173 -45 -246h-184l-6 94h-6q-29 -35 -84.5 -68.5t-122 -33.5t-102 14.5t-59.5 39.5 q-48 48 -48 119zM352 991q0 -27 15.5 -44t60.5 -17t74.5 23.5t50.5 47.5l14 72q-32 4 -67 4q-148 0 -148 -86z" />
<glyph unicode="&#xab;" horiz-adv-x="952" d="M61 530l410 471l123 -131l-217 -258l-113 -80l74 -75l123 -252l-172 -127zM442 530l410 471l123 -131l-217 -258l-113 -80l74 -75l123 -252l-172 -127z" />
<glyph unicode="&#xac;" horiz-adv-x="1079" d="M135 614v230h905v-463h-245v233h-660z" />
<glyph unicode="&#xad;" horiz-adv-x="702" d="M115 483l51 213h489l-51 -213h-489z" />
<glyph unicode="&#xae;" horiz-adv-x="1419" d="M240 923q0 138 46 245.5t126 181.5q165 151 407 151q249 0 410 -151q168 -159 168 -426q0 -269 -171 -428q-161 -150 -407 -150q-251 0 -411 150q-168 157 -168 427zM432 921q0 -95 32 -170t85 -124q107 -99 270 -99q268 0 355 220q30 75 30 174.5t-30.5 173t-83.5 122.5 q-104 99 -271 99q-176 0 -281 -105q-106 -106 -106 -291zM608 659v531q66 20 178.5 20t174 -35.5t61.5 -112.5t-42 -112t-103 -39l57 -28l133 -224h-125l-129 213l-98 31v-244h-107zM715 965h69q59 0 92 18t33 64q1 71 -118 71q-60 0 -76 -8v-145z" />
<glyph unicode="&#xaf;" horiz-adv-x="641" d="M602 1159l39 189h631l-39 -189h-631z" />
<glyph unicode="&#xb0;" horiz-adv-x="897" d="M248 1120q0 78 26.5 140.5t72.5 107.5q96 94 237 94q146 0 241 -89q101 -95 101 -251q0 -154 -101 -248q-96 -88 -241 -88q-143 0 -237 88q-99 94 -99 246zM453 1122q0 -66 38.5 -103.5t94.5 -37.5q55 0 96 38t41 103q0 66 -41 106t-96 40t-94 -40t-39 -106z" />
<glyph unicode="&#xb1;" horiz-adv-x="1034" d="M119 289v229h903v-229h-903zM119 829v230h332v338h239v-338h332v-230h-332v-217h-239v217h-332z" />
<glyph unicode="&#xb2;" horiz-adv-x="823" d="M197 778l30 146q451 283 451 442q0 76 -92 76q-97 0 -195 -58l-28 187q145 82 284 82q267 0 267 -205q0 -123 -78 -225.5t-209 -200.5l-101 -51v-8l117 22h207l-45 -207h-608z" />
<glyph unicode="&#xb3;" horiz-adv-x="823" d="M213 813l82 184q82 -39 177 -39t136 38t41 82t-29.5 64.5t-127.5 20.5h-84l16 78l176 166l92 49l-114 -12h-222l43 194h551l-28 -127l-209 -190l-72 -35v-10l57 6q72 -2 123.5 -51t50.5 -133t-33 -147.5t-88 -104.5q-110 -82 -294 -82q-157 0 -244 49z" />
<glyph unicode="&#xb4;" horiz-adv-x="487" d="M659 1159l170 316h256l-12 -62l-272 -254h-142z" />
<glyph unicode="&#xb6;" horiz-adv-x="1101" d="M127 1020q0 169 103 288q108 126 274 126h151v-1700h-217v868q-133 0 -224 126q-87 120 -87 292zM815 -266v1700h219v-1700h-219z" />
<glyph unicode="&#xb7;" horiz-adv-x="518" d="M150 647q0 72 45 114t119.5 42t119.5 -42t45 -114t-45 -115t-120 -43t-119.5 43t-44.5 115z" />
<glyph unicode="&#xb8;" horiz-adv-x="743" d="M483 -418l41 99q104 -10 143.5 12t39.5 51q0 66 -160 61l153 195h162l-67 -88q70 -4 106.5 -43t36.5 -95t-23.5 -95t-63.5 -65q-77 -50 -182.5 -50t-185.5 18z" />
<glyph unicode="&#xb9;" horiz-adv-x="823" d="M244 778l43 205h190l74 336l39 94l-74 -65l-129 -76l-69 149l360 232h166l-143 -670h170l-44 -205h-583z" />
<glyph unicode="&#xba;" horiz-adv-x="817" d="M123 1018q0 115 38 196.5t99 135.5q122 108 271 108q290 0 290 -246q0 -222 -129 -342q-116 -108 -295 -108q-127 0 -200.5 70.5t-73.5 185.5zM346 1037.5q0 -103.5 88 -103.5q68 0 115 70.5t47 176t-88 105.5q-64 0 -114 -74q-48 -71 -48 -174.5z" />
<glyph unicode="&#xbb;" horiz-adv-x="952" d="M39 203l221 260l113 84l-72 80l-127 254l176 120l225 -452l-409 -471zM416 203l221 260l113 84l-72 80l-127 254l176 120l225 -452l-409 -471z" />
<glyph unicode="&#xbc;" horiz-adv-x="1720" d="M248 1223l365 225h168l-187 -875h-225l115 541l41 94l-72 -65l-129 -74zM383 80l883 1384l174 -102l-880 -1391zM833 160l29 137l542 580h179l-113 -535h147l-38 -182h-148l-35 -160h-196l34 160h-401zM1065 326l108 16h102l35 176l37 109h-10l-66 -100l-123 -136z" />
<glyph unicode="&#xbd;" horiz-adv-x="1765" d="M248 1223l365 225h168l-187 -875h-225l115 541l41 94l-72 -65l-129 -74zM385 80l883 1384l174 -102l-880 -1391zM983 0l30 146q451 283 451 442q0 76 -92 76q-97 0 -195 -58l-28 187q145 82 284 82q267 0 267 -205q0 -123 -78 -225.5t-209 -200.5l-101 -51v-8l117 22h207 l-45 -207h-608z" />
<glyph unicode="&#xbe;" horiz-adv-x="1769" d="M141 608l82 184q82 -39 177 -39t136 38t41 82t-29.5 64.5t-127.5 20.5h-84l16 78l176 166l92 49l-114 -12h-222l43 194h551l-28 -127l-209 -190l-72 -35v-10l57 6q72 -2 123.5 -51t50.5 -133t-33 -147.5t-88 -104.5q-110 -82 -294 -82q-157 0 -244 49zM434 80l883 1384 l174 -102l-880 -1391zM885 160l29 137l542 580h179l-113 -535h147l-38 -182h-148l-35 -160h-196l34 160h-401zM1117 326l108 16h102l35 176l37 109h-10l-66 -100l-123 -136z" />
<glyph unicode="&#xbf;" horiz-adv-x="880" d="M-47 -173q0 116 32.5 190.5t84 131t113 100.5t117.5 93t101 110.5t62 149.5h217q-28 -258 -245 -429q-132 -104 -171 -158t-39 -110t32 -87t105 -31q144 0 281 94l64 -192q-84 -51 -182.5 -87t-255 -36t-236.5 72.5t-80 188.5zM442 893q0 72 45 115t120 43t120 -43 t45 -115t-45 -114t-120 -42t-120 42t-45 114z" />
<glyph unicode="&#xc0;" horiz-adv-x="1191" d="M-78 0l797 1444h196l187 -1444h-268l-41 317h-418l-170 -317h-283zM492 543h290l-32 319l2 225h-11l-82 -227zM555 1720l12 62h287l154 -242h-185z" />
<glyph unicode="&#xc1;" horiz-adv-x="1191" d="M-78 0l797 1444h196l187 -1444h-268l-41 317h-418l-170 -317h-283zM492 543h290l-32 319l2 225h-11l-82 -227zM647 1540l256 242h321l-12 -62l-352 -180h-213z" />
<glyph unicode="&#xc2;" horiz-adv-x="1191" d="M-78 0l797 1444h196l187 -1444h-268l-41 317h-418l-170 -317h-283zM481 1511l18 82l297 189h179l206 -191l-16 -80h-180l-92 84l-27 70l-55 -68l-138 -86h-192zM492 543h290l-32 319l2 225h-11l-82 -227z" />
<glyph unicode="&#xc3;" horiz-adv-x="1191" d="M-78 0l797 1444h196l187 -1444h-268l-41 317h-418l-170 -317h-283zM492 543h290l-32 319l2 225h-11l-82 -227zM493 1638q135 125 260 125q61 0 130 -24.5t105 -35.5t89 -11t109 49l20 -137q-120 -97 -227 -97q-48 0 -120.5 23.5t-108 35t-74.5 11.5q-82 0 -164 -68z" />
<glyph unicode="&#xc4;" horiz-adv-x="1191" d="M-78 0l797 1444h196l187 -1444h-268l-41 317h-418l-170 -317h-283zM492 543h290l-32 319l2 225h-11l-82 -227zM504 1634q0 59 41 89t107 30t106.5 -29.5t40.5 -89.5q0 -59 -41 -87.5t-106 -28.5q-66 0 -107 28.5t-41 87.5zM922 1634q0 59 41 89t106 30q66 0 107 -29.5 t41 -89.5q0 -59 -41 -87.5t-107 -28.5t-106.5 28.5t-40.5 87.5z" />
<glyph unicode="&#xc5;" horiz-adv-x="1191" d="M-78 0l783 1419q-119 41 -119 160q0 184 262 184t262 -184q0 -66 -42 -114t-148 -60l182 -1405h-268l-41 317h-418l-170 -317h-283zM492 543h290l-32 319l2 225h-11l-82 -227zM758 1579q0 -63 91 -63t91 63q0 68 -91 68t-91 -68z" />
<glyph unicode="&#xc6;" horiz-adv-x="1691" d="M-135 0l1120 1434h827l-53 -250h-540l-72 -334h493l-53 -250h-491l-74 -350h551l-53 -250h-818l74 348h-350l-262 -348h-299zM592 575h233l107 510h-12l-91 -192z" />
<glyph unicode="&#xc7;" horiz-adv-x="1099" d="M119 568.5q0 230.5 67.5 401.5t178 280.5t253 160.5t275.5 51q224 0 346 -57l-104 -238q-80 45 -214 45t-224.5 -43t-156.5 -123q-141 -171 -141 -454q0 -174 87 -272.5t231 -98.5t268 68l4 -230q-133 -86 -321 -88l-45 -59q70 -4 106.5 -42t36.5 -94t-23.5 -95 t-63.5 -65q-77 -50 -182.5 -50t-185.5 18l41 99q104 -10 143.5 12t39.5 51q0 63 -160 59l141 181q-194 39 -299 200q-98 152 -98 382.5z" />
<glyph unicode="&#xc8;" horiz-adv-x="1030" d="M41 0l303 1434h807l-53 -250h-541l-72 -334h494l-55 -250h-490l-76 -350h551l-51 -250h-817zM475 1720l12 62h287l154 -242h-185z" />
<glyph unicode="&#xc9;" horiz-adv-x="1030" d="M41 0l303 1434h807l-53 -250h-541l-72 -334h494l-55 -250h-490l-76 -350h551l-51 -250h-817zM613 1540l256 242h321l-12 -62l-352 -180h-213z" />
<glyph unicode="&#xca;" horiz-adv-x="1030" d="M41 0l303 1434h807l-53 -250h-541l-72 -334h494l-55 -250h-490l-76 -350h551l-51 -250h-817zM422 1511l18 82l297 189h179l206 -191l-16 -80h-180l-92 84l-27 70l-55 -68l-138 -86h-192z" />
<glyph unicode="&#xcb;" horiz-adv-x="1030" d="M41 0l303 1434h807l-53 -250h-541l-72 -334h494l-55 -250h-490l-76 -350h551l-51 -250h-817zM430 1634q0 59 41 89t107 30t106.5 -29.5t40.5 -89.5q0 -59 -41 -87.5t-106 -28.5q-66 0 -107 28.5t-41 87.5zM848 1634q0 59 41 89t106 30q66 0 107 -29.5t41 -89.5 q0 -59 -41 -87.5t-107 -28.5t-106.5 28.5t-40.5 87.5z" />
<glyph unicode="&#xcc;" horiz-adv-x="569" d="M72 0l303 1434h264l-303 -1434h-264zM231 1720l12 62h287l154 -242h-185z" />
<glyph unicode="&#xcd;" horiz-adv-x="569" d="M72 0l303 1434h264l-303 -1434h-264zM367 1540l256 242h321l-12 -62l-352 -180h-213z" />
<glyph unicode="&#xce;" horiz-adv-x="569" d="M72 0l303 1434h264l-303 -1434h-264zM178 1511l18 82l297 189h179l206 -191l-16 -80h-180l-92 84l-27 70l-55 -68l-138 -86h-192z" />
<glyph unicode="&#xcf;" horiz-adv-x="569" d="M72 0l303 1434h264l-303 -1434h-264zM188 1634q0 59 41 89t107 30t106.5 -29.5t40.5 -89.5q0 -59 -41 -87.5t-106 -28.5q-66 0 -107 28.5t-41 87.5zM606 1634q0 59 41 89t106 30q66 0 107 -29.5t41 -89.5q0 -59 -41 -87.5t-107 -28.5t-106.5 28.5t-40.5 87.5z" />
<glyph unicode="&#xd0;" horiz-adv-x="1310" d="M47 657l35 164h174l129 613q129 18 266 18l125 2q401 0 517 -296q40 -103 40 -219t-15 -219.5t-52 -207.5t-101.5 -200.5t-162.5 -169.5q-218 -165 -549 -165l-105 3q-234 13 -266 18l139 659h-174zM397 236q28 -7 75 -7h56q143 -2 243.5 62.5t162.5 162.5 q119 184 119 423q0 164 -69 245.5t-230 81.5q-104 0 -154 -8l-80 -375h271l-35 -164h-271z" />
<glyph unicode="&#xd1;" horiz-adv-x="1292" d="M41 0l307 1444h184l353 -766l63 -223h13l14 223l162 756h252l-308 -1444h-184l-350 760l-68 229h-10l-18 -229l-158 -750h-252zM530 1638q135 125 260 125q61 0 130 -24.5t105 -35.5t89 -11t109 49l20 -137q-120 -97 -227 -97q-48 0 -120.5 23.5t-108 35t-74.5 11.5 q-82 0 -164 -68z" />
<glyph unicode="&#xd2;" horiz-adv-x="1318" d="M119 537q0 190 52 359t148.5 295t232.5 198.5t304 72.5q347 0 448 -306q35 -105 35 -273.5t-52 -338t-147.5 -297.5t-227.5 -202t-291 -74q-242 0 -371 142.5t-131 423.5zM399 545q0 -324 242 -324q94 0 171 56.5t132 151.5q115 199 115 474q0 162 -63.5 235.5t-165 73.5 t-178.5 -53t-133 -144q-120 -195 -120 -470zM594 1720l12 62h287l154 -242h-185z" />
<glyph unicode="&#xd3;" horiz-adv-x="1318" d="M119 537q0 190 52 359t148.5 295t232.5 198.5t304 72.5q347 0 448 -306q35 -105 35 -273.5t-52 -338t-147.5 -297.5t-227.5 -202t-291 -74q-242 0 -371 142.5t-131 423.5zM399 545q0 -324 242 -324q94 0 171 56.5t132 151.5q115 199 115 474q0 162 -63.5 235.5t-165 73.5 t-178.5 -53t-133 -144q-120 -195 -120 -470zM750 1540l256 242h321l-12 -62l-352 -180h-213z" />
<glyph unicode="&#xd4;" horiz-adv-x="1318" d="M119 537q0 190 52 359t148.5 295t232.5 198.5t304 72.5q347 0 448 -306q35 -105 35 -273.5t-52 -338t-147.5 -297.5t-227.5 -202t-291 -74q-242 0 -371 142.5t-131 423.5zM399 545q0 -324 242 -324q94 0 171 56.5t132 151.5q115 199 115 474q0 162 -63.5 235.5t-165 73.5 t-178.5 -53t-133 -144q-120 -195 -120 -470zM553 1511l18 82l297 189h179l206 -191l-16 -80h-180l-92 84l-27 70l-55 -68l-138 -86h-192z" />
<glyph unicode="&#xd5;" horiz-adv-x="1318" d="M119 537q0 190 52 359t148.5 295t232.5 198.5t304 72.5q347 0 448 -306q35 -105 35 -273.5t-52 -338t-147.5 -297.5t-227.5 -202t-291 -74q-242 0 -371 142.5t-131 423.5zM399 545q0 -324 242 -324q94 0 171 56.5t132 151.5q115 199 115 474q0 162 -63.5 235.5t-165 73.5 t-178.5 -53t-133 -144q-120 -195 -120 -470zM548 1638q135 125 260 125q61 0 130 -24.5t105 -35.5t89 -11t109 49l20 -137q-120 -97 -227 -97q-48 0 -120.5 23.5t-108 35t-74.5 11.5q-82 0 -164 -68z" />
<glyph unicode="&#xd6;" horiz-adv-x="1318" d="M119 537q0 190 52 359t148.5 295t232.5 198.5t304 72.5q347 0 448 -306q35 -105 35 -273.5t-52 -338t-147.5 -297.5t-227.5 -202t-291 -74q-242 0 -371 142.5t-131 423.5zM399 545q0 -324 242 -324q94 0 171 56.5t132 151.5q115 199 115 474q0 162 -63.5 235.5t-165 73.5 t-178.5 -53t-133 -144q-120 -195 -120 -470zM553 1634q0 59 41 89t107 30t106.5 -29.5t40.5 -89.5q0 -59 -41 -87.5t-106 -28.5q-66 0 -107 28.5t-41 87.5zM971 1634q0 59 41 89t106 30q66 0 107 -29.5t41 -89.5q0 -59 -41 -87.5t-107 -28.5t-106.5 28.5t-40.5 87.5z" />
<glyph unicode="&#xd7;" horiz-adv-x="1034" d="M135 426l268 268l-264 260l160 166l268 -266l267 266l161 -166l-266 -260l266 -264l-161 -168l-267 268l-270 -270z" />
<glyph unicode="&#xd8;" horiz-adv-x="1318" d="M117 121l69 86q-67 134 -67 327t52 362t148.5 295t232.5 198.5t308 72.5t287 -82l55 66l148 -127l-76 -92q65 -128 65 -320.5t-52 -362t-147.5 -297.5t-227.5 -202t-303.5 -74t-293.5 84l-55 -65zM399 506q0 -19 4 -37l568 694q-59 49 -150.5 49t-168.5 -53t-133 -144 q-120 -195 -120 -470v-39zM489 270q57 -49 152 -49q94 0 171 56.5t132 151.5q115 199 115 474v29q0 14 -2 29z" />
<glyph unicode="&#xd9;" horiz-adv-x="1232" d="M129 356q0 84 21 174l192 904h264l-188 -902q-16 -78 -17 -126q0 -98 51.5 -139.5t162 -41.5t178 72t102.5 231l192 906h250l-194 -926q-61 -288 -199 -414q-132 -119 -381 -119q-224 0 -335 107q-99 97 -99 274zM551 1720l12 62h287l154 -242h-185z" />
<glyph unicode="&#xda;" horiz-adv-x="1232" d="M129 356q0 84 21 174l192 904h264l-188 -902q-16 -78 -17 -126q0 -98 51.5 -139.5t162 -41.5t178 72t102.5 231l192 906h250l-194 -926q-61 -288 -199 -414q-132 -119 -381 -119q-224 0 -335 107q-99 97 -99 274zM742 1540l256 242h321l-12 -62l-352 -180h-213z" />
<glyph unicode="&#xdb;" horiz-adv-x="1232" d="M129 356q0 84 21 174l192 904h264l-188 -902q-16 -78 -17 -126q0 -98 51.5 -139.5t162 -41.5t178 72t102.5 231l192 906h250l-194 -926q-61 -288 -199 -414q-132 -119 -381 -119q-224 0 -335 107q-99 97 -99 274zM524 1511l18 82l297 189h179l206 -191l-16 -80h-180 l-92 84l-27 70l-55 -68l-138 -86h-192z" />
<glyph unicode="&#xdc;" horiz-adv-x="1232" d="M129 356q0 84 21 174l192 904h264l-188 -902q-16 -78 -17 -126q0 -98 51.5 -139.5t162 -41.5t178 72t102.5 231l192 906h250l-194 -926q-61 -288 -199 -414q-132 -119 -381 -119q-224 0 -335 107q-99 97 -99 274zM524 1634q0 59 41 89t107 30t106.5 -29.5t40.5 -89.5 q0 -59 -41 -87.5t-106 -28.5q-66 0 -107 28.5t-41 87.5zM942 1634q0 59 41 89t106 30q66 0 107 -29.5t41 -89.5q0 -59 -41 -87.5t-107 -28.5t-106.5 28.5t-40.5 87.5z" />
<glyph unicode="&#xdd;" horiz-adv-x="1165" d="M217 1434h295l133 -539l-4 -152h8l64 156l358 535h305l-637 -899l-112 -535h-265l111 532zM668 1540l256 242h321l-12 -62l-352 -180h-213z" />
<glyph unicode="&#xde;" horiz-adv-x="1126" d="M41 0l305 1434h264l-30 -146q27 2 53 2h53q219 0 350 -96q140 -104 140 -309q0 -294 -202 -441q-166 -122 -446 -122h-66q-57 0 -87 6l-68 -328h-266zM428 573q40 -10 110.5 -10t134.5 14.5t113 48.5q109 73 109 224q0 160 -149 188q-44 9 -87 9q-70 0 -133 -11 q-25 -117 -49 -231.5t-49 -231.5z" />
<glyph unicode="&#xdf;" horiz-adv-x="1245" d="M-264 -369l69 187q57 -23 158 -23q66 0 101.5 51.5t52.5 153.5l145 815h-168l41 209h166l12 57q66 307 332 355q82 14 182 14t172 -22.5t117 -60.5q86 -73 86 -196q0 -172 -159 -274q-101 -65 -129.5 -97t-28.5 -67t23.5 -57.5t58 -41t76.5 -39t77 -51.5q82 -74 82 -202 q0 -160 -134 -266q-133 -105 -331 -105q-84 0 -166 23.5t-133 58.5l115 199q43 -27 91 -47.5t98.5 -20.5t81 10.5t54.5 29.5q56 41 56 108q0 63 -83 110q-36 21 -78 42.5t-78 51.5q-83 68 -83 181q0 139 160 239q105 65 132.5 97t27.5 74t-37 71t-121 29t-143.5 -53.5 t-81.5 -174.5l-182 -999q-39 -228 -110 -318q-85 -108 -255 -108q-180 0 -266 57z" />
<glyph unicode="&#xe0;" horiz-adv-x="1030" d="M68 296q0 149 37.5 286t117.5 242q176 229 492 229q143 0 321 -49l-127 -594q-30 -146 -30 -257t4 -155h-187l-28 176h-9q-47 -75 -137 -138q-93 -65 -190 -65q-135 0 -199.5 88t-64.5 237zM328 344q0 -162 100 -162q113 0 217 162l103 477q-48 21 -116.5 21t-125.5 -44 t-97 -115q-81 -144 -81 -339zM467 1413l14 62h264l50 -316h-142z" />
<glyph unicode="&#xe1;" horiz-adv-x="1030" d="M68 296q0 149 37.5 286t117.5 242q176 229 492 229q143 0 321 -49l-127 -594q-30 -146 -30 -257t4 -155h-187l-28 176h-9q-47 -75 -137 -138q-93 -65 -190 -65q-135 0 -199.5 88t-64.5 237zM328 344q0 -162 100 -162q113 0 217 162l103 477q-48 21 -116.5 21t-125.5 -44 t-97 -115q-81 -144 -81 -339zM612 1159l170 316h256l-12 -62l-272 -254h-142z" />
<glyph unicode="&#xe2;" horiz-adv-x="1030" d="M68 296q0 149 37.5 286t117.5 242q176 229 492 229q143 0 321 -49l-127 -594q-30 -146 -30 -257t4 -155h-187l-28 176h-9q-47 -75 -137 -138q-93 -65 -190 -65q-135 0 -199.5 88t-64.5 237zM328 344q0 -162 100 -162q113 0 217 162l103 477q-48 21 -116.5 21t-125.5 -44 t-97 -115q-81 -144 -81 -339zM389 1126l320 373h168l137 -373h-197l-49 136l-8 100l-55 -100l-117 -136h-199z" />
<glyph unicode="&#xe3;" horiz-adv-x="1030" d="M68 296q0 149 37.5 286t117.5 242q176 229 492 229q143 0 321 -49l-127 -594q-30 -146 -30 -257t4 -155h-187l-28 176h-9q-47 -75 -137 -138q-93 -65 -190 -65q-135 0 -199.5 88t-64.5 237zM328 344q0 -162 100 -162q113 0 217 162l103 477q-48 21 -116.5 21t-125.5 -44 t-97 -115q-81 -144 -81 -339zM404 1348q126 133 225 133q37 0 68.5 -14.5t63.5 -31t63.5 -30.5t82 -14t123.5 55l9 -143q-117 -117 -211 -117q-52 0 -110 29.5t-91 43t-70 13.5q-73 0 -145 -58z" />
<glyph unicode="&#xe4;" horiz-adv-x="1030" d="M68 296q0 149 37.5 286t117.5 242q176 229 492 229q143 0 321 -49l-127 -594q-30 -146 -30 -257t4 -155h-187l-28 176h-9q-47 -75 -137 -138q-93 -65 -190 -65q-135 0 -199.5 88t-64.5 237zM328 344q0 -162 100 -162q113 0 217 162l103 477q-48 21 -116.5 21t-125.5 -44 t-97 -115q-81 -144 -81 -339zM351 1334q0 67 37.5 105t97.5 38q59 0 97 -38t38 -105t-38 -103.5t-97 -36.5t-97 36.5t-38 103.5zM777 1335q0 66 37.5 104t97.5 38q59 0 97 -38t38 -104t-38 -103.5t-97 -37.5t-97 37.5t-38 103.5z" />
<glyph unicode="&#xe5;" horiz-adv-x="1030" d="M68 296q0 149 37.5 286t117.5 242q176 229 492 229q143 0 321 -49l-127 -594q-30 -146 -30 -257t4 -155h-187l-28 176h-9q-47 -75 -137 -138q-93 -65 -190 -65q-135 0 -199.5 88t-64.5 237zM328 344q0 -162 100 -162q113 0 217 162l103 477q-48 21 -116.5 21t-125.5 -44 t-97 -115q-81 -144 -81 -339zM522 1324q0 87 58.5 142.5t166 55.5t169 -50.5t61.5 -138.5t-60.5 -144t-168 -56t-167 52t-59.5 139zM670 1325q0 -33 23.5 -50.5t56.5 -17.5q80 0 80 68q0 35 -24 52.5t-56 17.5q-80 0 -80 -70z" />
<glyph unicode="&#xe6;" horiz-adv-x="1523" d="M35 242q0 191 168 288q153 88 399 88h34q17 0 34 -2q23 78 22 124q-1 94 -137 94t-283 -60l-36 191q162 79 405 79q200 0 252 -122q59 63 148 97t178.5 34t150 -19.5t98.5 -54.5q72 -68 72 -182.5t-54 -184t-146 -109.5q-160 -69 -466 -69q-4 -32 -4 -61q0 -191 203 -191 q144 0 256 68l47 -176q-70 -49 -175 -76t-210 -27q-262 0 -336 187h-10q-155 -174 -354 -174q-188 0 -241 162q-15 47 -15 96zM295 303q0 -104 104 -104q112 0 222 139l18 119q-16 2 -33 2h-35q-117 0 -196.5 -38t-79.5 -118zM915 598q180 0 246 18.5t100.5 50t34.5 77.5 q0 104 -112.5 104t-175 -73t-93.5 -177z" />
<glyph unicode="&#xe7;" horiz-adv-x="843" d="M70 342.5q0 153.5 49 288.5t130 228t184.5 143.5t205.5 50.5t158.5 -18.5t101.5 -41.5l-94 -200q-64 38 -172 38q-109 0 -202 -129q-91 -127 -91 -296q0 -213 179 -213q89 0 192 63l47 -172q-115 -85 -254 -107l-49 -65q70 -4 106.5 -42t36.5 -94t-23.5 -95t-63.5 -65 q-77 -50 -182.5 -50t-185.5 18l41 99q104 -10 143.5 12t39.5 51q0 63 -160 59l135 175q-138 22 -209 121q-63 88 -63 241.5z" />
<glyph unicode="&#xe8;" horiz-adv-x="954" d="M70 335q0 169 51 301t134 224t187.5 142.5t198.5 50.5t154.5 -21.5t99.5 -59.5q76 -74 76 -175t-43 -164.5t-120 -105.5q-156 -85 -423 -85l-61 2q-9 -56 -9 -79q0 -183 185 -183q90 0 161.5 27t108.5 53l53 -164q-63 -53 -163.5 -90t-250 -37t-244.5 97.5t-95 266.5z M360 604q159 0 228 19.5t106 49t37 71t-22.5 73t-103.5 31.5t-147.5 -70t-97.5 -174zM426 1413l14 62h264l50 -316h-142z" />
<glyph unicode="&#xe9;" horiz-adv-x="954" d="M70 335q0 169 51 301t134 224t187.5 142.5t198.5 50.5t154.5 -21.5t99.5 -59.5q76 -74 76 -175t-43 -164.5t-120 -105.5q-156 -85 -423 -85l-61 2q-9 -56 -9 -79q0 -183 185 -183q90 0 161.5 27t108.5 53l53 -164q-63 -53 -163.5 -90t-250 -37t-244.5 97.5t-95 266.5z M360 604q159 0 228 19.5t106 49t37 71t-22.5 73t-103.5 31.5t-147.5 -70t-97.5 -174zM579 1159l170 316h256l-12 -62l-272 -254h-142z" />
<glyph unicode="&#xea;" horiz-adv-x="954" d="M70 335q0 169 51 301t134 224t187.5 142.5t198.5 50.5t154.5 -21.5t99.5 -59.5q76 -74 76 -175t-43 -164.5t-120 -105.5q-156 -85 -423 -85l-61 2q-9 -56 -9 -79q0 -183 185 -183q90 0 161.5 27t108.5 53l53 -164q-63 -53 -163.5 -90t-250 -37t-244.5 97.5t-95 266.5z M342 1126l320 373h168l137 -373h-197l-49 136l-8 100l-55 -100l-117 -136h-199zM360 604q159 0 228 19.5t106 49t37 71t-22.5 73t-103.5 31.5t-147.5 -70t-97.5 -174z" />
<glyph unicode="&#xeb;" horiz-adv-x="954" d="M70 335q0 169 51 301t134 224t187.5 142.5t198.5 50.5t154.5 -21.5t99.5 -59.5q76 -74 76 -175t-43 -164.5t-120 -105.5q-156 -85 -423 -85l-61 2q-9 -56 -9 -79q0 -183 185 -183q90 0 161.5 27t108.5 53l53 -164q-63 -53 -163.5 -90t-250 -37t-244.5 97.5t-95 266.5z M336 1334q0 67 37.5 105t97.5 38q59 0 97 -38t38 -105t-38 -103.5t-97 -36.5t-97 36.5t-38 103.5zM360 604q159 0 228 19.5t106 49t37 71t-22.5 73t-103.5 31.5t-147.5 -70t-97.5 -174zM762 1335q0 66 37.5 104t97.5 38q59 0 97 -38t38 -104t-38 -103.5t-97 -37.5t-97 37.5 t-38 103.5z" />
<glyph unicode="&#xec;" horiz-adv-x="524" d="M55 0l217 1024h252l-217 -1024h-252zM215 1413l14 62h264l50 -316h-142z" />
<glyph unicode="&#xed;" horiz-adv-x="524" d="M55 0l217 1024h252l-217 -1024h-252zM317 1159l170 316h256l-12 -62l-272 -254h-142z" />
<glyph unicode="&#xee;" horiz-adv-x="524" d="M55 0l217 1024h252l-217 -1024h-252zM98 1126l320 373h168l137 -373h-197l-49 136l-8 100l-55 -100l-117 -136h-199z" />
<glyph unicode="&#xef;" horiz-adv-x="524" d="M55 0l217 1024h252l-217 -1024h-252zM113 1334q0 67 37.5 105t97.5 38q59 0 97 -38t38 -105t-38 -103.5t-97 -36.5t-97 36.5t-38 103.5zM539 1335q0 66 37.5 104t97.5 38q59 0 97 -38t38 -104t-38 -103.5t-97 -37.5t-97 37.5t-38 103.5z" />
<glyph unicode="&#xf0;" horiz-adv-x="1040" d="M76 352q0 281 154 480q149 190 362 190q141 0 207 -78q7 114 -43 221l-154 -63l-65 110l143 60q-72 72 -172 106l199 84q92 -35 167 -110l150 61l57 -110l-131 -56q76 -137 76 -311q0 -479 -178 -734q-161 -231 -416 -231q-164 0 -260 97.5t-96 283.5zM336 361 q0 -85 33.5 -132t103.5 -47t126 57.5t91 140.5q71 168 66 343q-16 41 -54 65.5t-95.5 24.5t-107.5 -39t-86 -102.5t-56.5 -144.5t-20.5 -166z" />
<glyph unicode="&#xf1;" horiz-adv-x="1067" d="M29 0l217 1024h190l-10 -180h8q171 209 383 209q92 0 147.5 -50.5t55.5 -166.5q0 -76 -16 -142l-148 -694h-252l136 635q12 57 12 101t-18.5 69.5t-61.5 25.5t-80 -18t-70 -49q-69 -67 -110 -146l-131 -618h-252zM416 1348q126 133 225 133q37 0 68.5 -14.5t63.5 -31 t63.5 -30.5t82 -14t123.5 55l9 -143q-117 -117 -211 -117q-52 0 -110 29.5t-91 43t-70 13.5q-73 0 -145 -58z" />
<glyph unicode="&#xf2;" horiz-adv-x="1015" d="M70 332q0 315 168 522q77 94 178.5 146.5t206 52.5t172 -31t109.5 -82q79 -96 79 -254t-45 -290t-121 -226t-176 -146.5t-203.5 -52.5t-171 32t-111.5 83q-85 99 -85 246zM330 364.5q0 -181.5 133 -182.5q49 0 96 43t84 113q80 151 80 334q0 82 -27.5 126t-90 44 t-109.5 -41t-84 -107q-82 -148 -82 -329.5zM442 1413l14 62h264l50 -316h-142z" />
<glyph unicode="&#xf3;" horiz-adv-x="1015" d="M70 332q0 315 168 522q77 94 178.5 146.5t206 52.5t172 -31t109.5 -82q79 -96 79 -254t-45 -290t-121 -226t-176 -146.5t-203.5 -52.5t-171 32t-111.5 83q-85 99 -85 246zM330 364.5q0 -181.5 133 -182.5q49 0 96 43t84 113q80 151 80 334q0 82 -27.5 126t-90 44 t-109.5 -41t-84 -107q-82 -148 -82 -329.5zM575 1159l170 316h256l-12 -62l-272 -254h-142z" />
<glyph unicode="&#xf4;" horiz-adv-x="1015" d="M70 332q0 315 168 522q77 94 178.5 146.5t206 52.5t172 -31t109.5 -82q79 -96 79 -254t-45 -290t-121 -226t-176 -146.5t-203.5 -52.5t-171 32t-111.5 83q-85 99 -85 246zM330 364.5q0 -181.5 133 -182.5q49 0 96 43t84 113q80 151 80 334q0 82 -27.5 126t-90 44 t-109.5 -41t-84 -107q-82 -148 -82 -329.5zM335 1126l320 373h168l137 -373h-197l-49 136l-8 100l-55 -100l-117 -136h-199z" />
<glyph unicode="&#xf5;" horiz-adv-x="1015" d="M70 332q0 315 168 522q77 94 178.5 146.5t206 52.5t172 -31t109.5 -82q79 -96 79 -254t-45 -290t-121 -226t-176 -146.5t-203.5 -52.5t-171 32t-111.5 83q-85 99 -85 246zM330 364.5q0 -181.5 133 -182.5q49 0 96 43t84 113q80 151 80 334q0 82 -27.5 126t-90 44 t-109.5 -41t-84 -107q-82 -148 -82 -329.5zM367 1348q126 133 225 133q37 0 68.5 -14.5t63.5 -31t63.5 -30.5t82 -14t123.5 55l9 -143q-117 -117 -211 -117q-52 0 -110 29.5t-91 43t-70 13.5q-73 0 -145 -58z" />
<glyph unicode="&#xf6;" horiz-adv-x="1015" d="M70 332q0 315 168 522q77 94 178.5 146.5t206 52.5t172 -31t109.5 -82q79 -96 79 -254t-45 -290t-121 -226t-176 -146.5t-203.5 -52.5t-171 32t-111.5 83q-85 99 -85 246zM330 364.5q0 -181.5 133 -182.5q49 0 96 43t84 113q80 151 80 334q0 82 -27.5 126t-90 44 t-109.5 -41t-84 -107q-82 -148 -82 -329.5zM338 1334q0 67 37.5 105t97.5 38q59 0 97 -38t38 -105t-38 -103.5t-97 -36.5t-97 36.5t-38 103.5zM764 1335q0 66 37.5 104t97.5 38q59 0 97 -38t38 -104t-38 -103.5t-97 -37.5t-97 37.5t-38 103.5z" />
<glyph unicode="&#xf7;" horiz-adv-x="1034" d="M119 578v229h905v-229h-905zM406 297q0 72 45 114t119.5 42t119.5 -42t45 -114t-45 -115t-120 -43t-119.5 43t-44.5 115zM406 1090q0 72 45 113.5t119.5 41.5t119.5 -42t45 -113q0 -72 -45 -115t-120 -43t-119.5 43t-44.5 115z" />
<glyph unicode="&#xf8;" horiz-adv-x="1015" d="M0 74l96 110q-26 68 -26 189t46 254t122.5 227t178 146.5t218.5 52.5t201 -54l69 78l131 -121l-86 -96q33 -78 33 -205t-45 -259t-121 -226t-176 -146.5t-220 -52.5t-210 64l-76 -84zM330 397l360 406q-33 39 -89 39t-101 -38t-81 -100q-81 -138 -89 -307zM360 233 q33 -51 91.5 -51t103.5 40t81 104q79 142 87 313z" />
<glyph unicode="&#xf9;" horiz-adv-x="1048" d="M80 197q0 76 20 165l142 662h252l-134 -633q-12 -61 -12 -102q0 -86 74 -86q64 0 139 63q65 53 107 127l131 631h252l-129 -614q-32 -130 -36.5 -252.5t-2.5 -157.5h-203l-10 184h-8q-158 -213 -367 -213q-96 0 -155.5 48.5t-59.5 177.5zM436 1413l14 62h264l50 -316 h-142z" />
<glyph unicode="&#xfa;" horiz-adv-x="1048" d="M80 197q0 76 20 165l142 662h252l-134 -633q-12 -61 -12 -102q0 -86 74 -86q64 0 139 63q65 53 107 127l131 631h252l-129 -614q-32 -130 -36.5 -252.5t-2.5 -157.5h-203l-10 184h-8q-158 -213 -367 -213q-96 0 -155.5 48.5t-59.5 177.5zM550 1159l170 316h256l-12 -62 l-272 -254h-142z" />
<glyph unicode="&#xfb;" horiz-adv-x="1048" d="M80 197q0 76 20 165l142 662h252l-134 -633q-12 -61 -12 -102q0 -86 74 -86q64 0 139 63q65 53 107 127l131 631h252l-129 -614q-32 -130 -36.5 -252.5t-2.5 -157.5h-203l-10 184h-8q-158 -213 -367 -213q-96 0 -155.5 48.5t-59.5 177.5zM348 1126l320 373h168l137 -373 h-197l-49 136l-8 100l-55 -100l-117 -136h-199z" />
<glyph unicode="&#xfc;" horiz-adv-x="1048" d="M80 197q0 76 20 165l142 662h252l-134 -633q-12 -61 -12 -102q0 -86 74 -86q64 0 139 63q65 53 107 127l131 631h252l-129 -614q-32 -130 -36.5 -252.5t-2.5 -157.5h-203l-10 184h-8q-158 -213 -367 -213q-96 0 -155.5 48.5t-59.5 177.5zM355 1334q0 67 37.5 105t97.5 38 q59 0 97 -38t38 -105t-38 -103.5t-97 -36.5t-97 36.5t-38 103.5zM781 1335q0 66 37.5 104t97.5 38q59 0 97 -38t38 -104t-38 -103.5t-97 -37.5t-97 37.5t-38 103.5z" />
<glyph unicode="&#xfd;" horiz-adv-x="925" d="M-35 -389l68 201q22 -11 61 -11t90.5 47.5t102.5 151.5l-193 1024h289l59 -575l2 -160h13l55 162l279 573h268l-492 -920q-148 -280 -214 -363t-125.5 -122t-138.5 -39t-124 31zM507 1159l170 316h256l-12 -62l-272 -254h-142z" />
<glyph unicode="&#xfe;" horiz-adv-x="1036" d="M-53 -410l391 1844h252l-127 -549h8q127 168 317 168q104 0 168 -72t64 -235.5t-46 -308t-123 -248t-180.5 -161t-219 -57.5t-166.5 37l-88 -418h-250zM328 217q51 -35 114 -35t119.5 43t98.5 115q92 158 92 367q0 59 -23.5 97t-66 38t-77 -18.5t-65.5 -45.5 q-52 -47 -98 -131z" />
<glyph unicode="&#xff;" horiz-adv-x="925" d="M-35 -389l68 201q22 -11 61 -11t90.5 47.5t102.5 151.5l-193 1024h289l59 -575l2 -160h13l55 162l279 573h268l-492 -920q-148 -280 -214 -363t-125.5 -122t-138.5 -39t-124 31zM269 1334q0 67 37.5 105t97.5 38q59 0 97 -38t38 -105t-38 -103.5t-97 -36.5t-97 36.5 t-38 103.5zM695 1335q0 66 37.5 104t97.5 38q59 0 97 -38t38 -104t-38 -103.5t-97 -37.5t-97 37.5t-38 103.5z" />
<glyph unicode="&#x152;" horiz-adv-x="1796" d="M119 537q0 428 211 679q100 119 237.5 182.5t280.5 63.5t262 -28h807l-53 -250h-541l-72 -334h494l-53 -250h-492l-74 -350h549l-51 -250h-817q-85 -29 -190 -29t-191 27t-154 92q-153 143 -153 447zM399 545q0 -215 126 -293q50 -31 119 -31q119 0 218 39l191 901 q-75 51 -195 51t-199 -49t-137 -137q-123 -184 -123 -481z" />
<glyph unicode="&#x153;" horiz-adv-x="1574" d="M70 340q0 154 46 287t123.5 227t179 146.5t212.5 52.5q207 0 291 -168q142 168 350 168q237 0 300 -168q19 -49 19 -119t-43 -133.5t-120 -105.5q-154 -85 -422 -85l-62 2q-8 -50 -8 -79q0 -183 184 -183q90 0 162 27t109 53l53 -164q-63 -53 -163.5 -90t-196.5 -37 t-143.5 13.5t-82.5 37.5q-68 45 -98 111q-51 -70 -139.5 -116t-188.5 -46t-167.5 32t-110.5 83q-84 100 -84 254zM330 364.5q0 -181.5 133 -182.5q49 0 96 43t84 113q80 151 80 334q0 82 -27.5 126t-90 44t-109.5 -41t-84 -107q-82 -148 -82 -329.5zM981 604q157 0 227 19.5 t107 49t37 71t-22.5 73t-103.5 31.5t-147.5 -70t-97.5 -174z" />
<glyph unicode="&#x178;" horiz-adv-x="1165" d="M217 1434h295l133 -539l-4 -152h8l64 156l358 535h305l-637 -899l-112 -535h-265l111 532zM491 1634q0 59 41 89t107 30t106.5 -29.5t40.5 -89.5q0 -59 -41 -87.5t-106 -28.5q-66 0 -107 28.5t-41 87.5zM909 1634q0 59 41 89t106 30q66 0 107 -29.5t41 -89.5 q0 -59 -41 -87.5t-107 -28.5t-106.5 28.5t-40.5 87.5z" />
<glyph unicode="&#x2c6;" horiz-adv-x="882" d="M614 1126l320 373h168l137 -373h-197l-49 136l-8 100l-55 -100l-117 -136h-199z" />
<glyph unicode="&#x2dc;" horiz-adv-x="714" d="M627 1348q126 133 225 133q37 0 68.5 -14.5t63.5 -31t63.5 -30.5t82 -14t123.5 55l9 -143q-117 -117 -211 -117q-52 0 -110 29.5t-91 43t-70 13.5q-73 0 -145 -58z" />
<glyph unicode="&#x2000;" horiz-adv-x="891" />
<glyph unicode="&#x2001;" horiz-adv-x="1782" />
<glyph unicode="&#x2002;" horiz-adv-x="891" />
<glyph unicode="&#x2003;" horiz-adv-x="1782" />
<glyph unicode="&#x2004;" horiz-adv-x="594" />
<glyph unicode="&#x2005;" horiz-adv-x="445" />
<glyph unicode="&#x2006;" horiz-adv-x="297" />
<glyph unicode="&#x2007;" horiz-adv-x="297" />
<glyph unicode="&#x2008;" horiz-adv-x="222" />
<glyph unicode="&#x2009;" horiz-adv-x="356" />
<glyph unicode="&#x200a;" horiz-adv-x="99" />
<glyph unicode="&#x2010;" horiz-adv-x="702" d="M115 483l51 213h489l-51 -213h-489z" />
<glyph unicode="&#x2011;" horiz-adv-x="702" d="M115 483l51 213h489l-51 -213h-489z" />
<glyph unicode="&#x2012;" horiz-adv-x="702" d="M115 483l51 213h489l-51 -213h-489z" />
<glyph unicode="&#x2013;" horiz-adv-x="1284" d="M215 483l51 213h858l-51 -213h-858z" />
<glyph unicode="&#x2014;" horiz-adv-x="1595" d="M215 483l51 213h1170l-52 -213h-1169z" />
<glyph unicode="&#x2018;" horiz-adv-x="440" d="M203 1294.5q0 69.5 34.5 133t82.5 107.5q93 84 174 101l38 -110q-41 -16 -76.5 -52t-47.5 -77q35 0 57 -31t22 -74q0 -80 -47 -118.5t-92 -38.5t-70.5 13t-41.5 34q-33 43 -33 112.5z" />
<glyph unicode="&#x2019;" horiz-adv-x="442" d="M203 1061q102 43 129 127q-37 4 -61.5 34t-23.5 75t16.5 72.5t38.5 46.5q44 36 99 36q134 0 134 -137q0 -148 -110 -256q-74 -73 -183 -111z" />
<glyph unicode="&#x201a;" horiz-adv-x="462" d="M17 -131q102 43 129 127q-37 4 -61.5 34t-23.5 75t16.5 72.5t38.5 46.5q44 36 99 36q134 0 134 -137q0 -148 -110 -256q-74 -73 -183 -111z" />
<glyph unicode="&#x201c;" horiz-adv-x="776" d="M203 1294.5q0 69.5 34.5 133t82.5 107.5q93 84 174 101l38 -110q-41 -16 -76.5 -52t-47.5 -77q35 0 57 -31t22 -74q0 -80 -47 -118.5t-92 -38.5t-70.5 13t-41.5 34q-33 43 -33 112.5zM539 1294.5q0 69.5 34.5 133t82.5 107.5q93 84 174 101l38 -110q-41 -16 -76.5 -52 t-47.5 -77q35 0 57 -31t22 -74q0 -80 -47 -118.5t-92 -38.5t-70.5 13t-41.5 34q-33 43 -33 112.5z" />
<glyph unicode="&#x201d;" horiz-adv-x="776" d="M203 1061q102 43 129 127q-37 4 -61.5 34t-23.5 75t16.5 72.5t38.5 46.5q44 36 99 36q134 0 134 -137q0 -148 -110 -256q-74 -73 -183 -111zM537 1061q102 43 129 127q-37 4 -61.5 34t-23.5 75t16.5 72.5t38.5 46.5q44 36 99 36q134 0 134 -137q0 -148 -110 -256 q-74 -73 -183 -111z" />
<glyph unicode="&#x201e;" horiz-adv-x="796" d="M17 -131q102 43 129 127q-37 4 -61.5 34t-23.5 75t16.5 72.5t38.5 46.5q44 36 99 36q134 0 134 -137q0 -148 -110 -256q-74 -73 -183 -111zM348 -131q102 43 129 127q-37 4 -61.5 34t-23.5 75t16.5 72.5t38.5 46.5q44 36 99 36q134 0 134 -137q0 -148 -110 -256 q-74 -73 -183 -111z" />
<glyph unicode="&#x2022;" horiz-adv-x="925" d="M201 635q0 72 24.5 129t66.5 98q90 88 220 88q135 0 222 -83q91 -87 91 -230q0 -141 -91 -228q-87 -83 -222 -83q-133 0 -220 83q-91 87 -91 226z" />
<glyph unicode="&#x2026;" horiz-adv-x="1574" d="M37 135q0 72 45 114t120 42t120 -42t45 -114t-45.5 -115t-120 -43t-119.5 43t-45 115zM565 135q0 72 45 114t120 42t120 -42t45 -114t-45 -115t-120 -43t-120 43t-45 115zM1096 135q0 72 45 114t120 42t119.5 -42t44.5 -114t-45 -115t-119.5 -43t-119.5 43t-45 115z" />
<glyph unicode="&#x202f;" horiz-adv-x="356" />
<glyph unicode="&#x2039;" horiz-adv-x="614" d="M82 530l410 471l122 -131l-217 -258l-112 -80l73 -75l123 -252l-172 -127z" />
<glyph unicode="&#x203a;" horiz-adv-x="600" d="M63 203l222 260l112 84l-71 80l-127 254l176 120l225 -452l-410 -471z" />
<glyph unicode="&#x205f;" horiz-adv-x="445" />
<glyph unicode="&#x20ac;" d="M-12 473l104 191h131q8 61 21 118h-193l107 191h149q70 156 177.5 268.5t244.5 166.5t249 54q191 0 308 -67l-108 -185q-80 39 -222 39q-80 0 -169 -43t-164 -131q-39 -45 -70 -102h520l-94 -191h-500q-14 -55 -20 -118h454l-94 -191h-364q4 -45 15 -96t47 -97.5 t94.5 -71t168 -24.5t232.5 66l35 -187q-70 -45 -170.5 -68.5t-210 -23.5t-196.5 38q-175 76 -228 265q-27 90 -27 199h-227z" />
<glyph unicode="&#x2122;" horiz-adv-x="1951" d="M188 1208v226h750v-226h-242v-512h-266v512h-242zM1008 696v738h266l186 -308l49 -129h2l52 133l172 304h264v-738h-232v295l35 211h-12l-74 -174l-139 -240h-160l-139 234l-80 180h-10l47 -209v-297h-227z" />
<glyph unicode="&#xe000;" horiz-adv-x="1024" d="M0 0v1024h1024v-1024h-1024z" />
</font>
</defs>
</svg>
